<?xml version="1.0"?>
<svg xmlns="http://www.w3.org/2000/svg" xmlns:xlink="http://www.w3.org/1999/xlink" xmlns:svgjs="http://svgjs.com/svgjs" version="1.1" width="512" height="512" x="0" y="0" viewBox="0 0 480.05153 480" style="enable-background:new 0 0 512 512" xml:space="preserve" class=""><g><path xmlns="http://www.w3.org/2000/svg" d="m240.003906 344.027344h16v16h-16zm0 0" fill="#3399ff" data-original="#000000" style="" class=""/><path xmlns="http://www.w3.org/2000/svg" d="m352.003906 296.027344c-4.417968 0-8 3.582031-8 8v48c0 4.417968 3.582032 8 8 8h48c4.417969 0 8-3.582032 8-8v-48c0-4.417969-3.582031-8-8-8zm40 48h-32v-32h32zm0 0" fill="#3399ff" data-original="#000000" style="" class=""/><path xmlns="http://www.w3.org/2000/svg" d="m128.003906 296.027344h-48c-4.417968 0-8 3.582031-8 8v48c0 4.417968 3.582032 8 8 8h48c4.417969 0 8-3.582032 8-8v-48c0-4.417969-3.582031-8-8-8zm-8 48h-32v-32h32zm0 0" fill="#3399ff" data-original="#000000" style="" class=""/><path xmlns="http://www.w3.org/2000/svg" d="m480.003906 61.628906v-21.355468c0-4.398438-3.550781-7.972657-7.953125-8h-6.472656c-20.3125-.109376-40.144531-6.179688-57.039063-17.460938l-20.09375-13.441406c-2.691406-1.792969-6.191406-1.792969-8.882812 0l-20.09375 13.398437c-16.902344 11.289063-36.742188 17.359375-57.066406 17.464844h-6.46875c-4.402344.027344-7.953125 3.601563-7.953125 8v21.394531c.035156 26.4375 7.785156 52.292969 22.296875 74.398438h-57.472656l-7.800782-6.25c-2.921875-2.339844-7.078125-2.339844-10 0l-7.800781 6.25h-171.199219c-3.03125 0-5.804687 1.710937-7.160156 4.421875l-48 96c-1.238281 2.480469-1.105469 5.425781.351562 7.785156 1.460938 2.359375 4.035157 3.792969 6.808594 3.792969h32v152h-8c-4.417968 0-8 3.582031-8 8v24h-16c-4.417968 0-7.99999975 3.582031-7.99999975 8v32c0 4.417968 3.58203175 8 7.99999975 8h464c4.417969 0 8-3.582032 8-8v-32c0-4.417969-3.582031-8-8-8h-16v-24c0-4.417969-3.582031-8-8-8h-8v-152h32c2.78125.015625 5.375-1.414063 6.84375-3.777344s1.601563-5.320312.355469-7.808594l-39.269531-78.460937c25.613281-25.527344 40.027344-60.191407 40.070312-96.351563zm-176-13.417968c22.933594-.402344 45.265625-7.386719 64.335938-20.128907l15.664062-10.453125 15.664063 10.398438c19.066406 12.761718 41.398437 19.765625 64.335937 20.183594v13.417968c-.0625 47.039063-27.546875 89.722656-70.34375 109.246094l-9.65625 4.351562-9.65625-4.382812c-42.789062-19.519531-70.269531-62.1875-70.34375-109.214844zm46.320313 186.320312c1.070312.855469 1.6875 2.15625 1.679687 3.527344.003906 1.722656-.980468 3.292968-2.535156 4.039062-1.550781.746094-3.394531.535156-4.738281-.542968l-99.726563-79.777344c-2.921875-2.339844-7.078125-2.339844-10 0l-99.71875 79.777344c-1.351562 1.082031-3.199218 1.289062-4.753906.535156s-2.539062-2.335938-2.527344-4.0625c0-1.363282.617188-2.652344 1.679688-3.503906l110.320312-88.25zm-38.320313 165.496094h-32v-112c0-4.417969-3.582031-8-8-8h-64c-4.417968 0-8 3.582031-8 8v112h-32v-164.160156l72-57.601563 72 57.601563zm-48 0h-48v-104h48zm-235.054687-184h83.054687c4.417969 0 8-3.582032 8-8 0-4.417969-3.582031-8-8-8h-75.054687l8-16h43.054687c4.417969 0 8-3.582032 8-8 0-4.417969-3.582031-8-8-8h-35.054687l8-16h146.253906l-20 16h-67.199219c-4.417968 0-8 3.582031-8 8 0 4.417968 3.582032 8 8 8h47.199219l-47.503906 38c-3.191407 2.578125-5.523438 6.066406-6.6875 10h-92.0625zm27.054687 32h58.695313c2.019531 3.6875 5.132812 6.65625 8.914062 8.496094 2.777344 1.335937 5.820313 2.035156 8.902344 2.039062 4.644531-.003906 9.144531-1.597656 12.761719-4.511719l6.726562-5.382812v151.359375h-96zm408 216h-448v-16h448zm-424-32v-16h400v16zm384-32h-96v-151.359375l6.726563 5.382812c4.679687 3.789063 10.792969 5.304688 16.699219 4.140625 5.902343-1.164062 10.988281-4.886718 13.878906-10.164062h58.695312zm19.03125-200h-19.03125c-4.417968 0-8 3.582031-8 8 0 4.417968 3.582032 8 8 8h27.039063l8 16h-92.046875c-1.164063-3.929688-3.496094-7.414063-6.679688-9.992188l-7.511718-6.007812h39.199218c4.417969 0 8-3.582032 8-8 0-4.417969-3.582031-8-8-8h-59.199218l-60-48h49.742187c12.5625 14.164062 27.949219 25.535156 45.175781 33.382812l12.96875 5.898438c2.105469.957031 4.519532.957031 6.625 0l12.96875-5.898438c9.6875-4.414062 18.816406-9.957031 27.199219-16.519531zm0 0" fill="#3399ff" data-original="#000000" style="" class=""/><path xmlns="http://www.w3.org/2000/svg" d="m376.003906 120.027344c2.121094 0 4.15625-.84375 5.65625-2.34375l29.253906-29.257813c3.035157-3.136719 2.988282-8.128906-.097656-11.214843-3.085937-3.085938-8.074218-3.128907-11.210937-.097657l-23.601563 23.601563-8.96875-8.976563c-2.007812-2.078125-4.984375-2.914062-7.78125-2.179687-2.796875.730468-4.980468 2.914062-5.710937 5.710937-.734375 2.796875.101562 5.773438 2.179687 7.78125l14.625 14.632813c1.5 1.5 3.535156 2.34375 5.65625 2.34375zm0 0" fill="#3399ff" data-original="#000000" style="" class=""/><path xmlns="http://www.w3.org/2000/svg" d="m384.003906 152.027344c30.929688 0 56-25.074219 56-56 0-30.929688-25.070312-56-56-56-30.929687 0-56 25.070312-56 56 .035156 30.914062 25.085938 55.964844 56 56zm0-96c22.089844 0 40 17.910156 40 40s-17.910156 40-40 40-40-17.910156-40-40c.027344-22.082032 17.917969-39.972656 40-40zm0 0" fill="#3399ff" data-original="#000000" style="" class=""/></g></svg>
