<?xml version="1.0"?>
<svg xmlns="http://www.w3.org/2000/svg" xmlns:xlink="http://www.w3.org/1999/xlink" xmlns:svgjs="http://svgjs.com/svgjs" version="1.1" width="512" height="512" x="0" y="0" viewBox="0 0 511.993 511.993" style="enable-background:new 0 0 512 512" xml:space="preserve" class=""><g>
<g xmlns="http://www.w3.org/2000/svg">
	<g>
		<circle cx="302.545" cy="93.087" r="11.636" fill="#00123f" data-original="#000000" style=""/>
	</g>
</g>
<g xmlns="http://www.w3.org/2000/svg">
	<g>
		<path d="M508.591,329.224c-24.204-24.215-62.022-29.521-91.217-13.242l-48.849,22.819c-13.347,6.237-28.09,9.623-42.845,10.1    c7.296-9.728,11.776-21.667,11.776-34.723c0-12.835-10.438-23.273-23.273-23.273H193.513c-30.196,0-58.915,13.033-78.813,35.759    l-41.181,47.069c-6.412-7.866-16.058-13.009-26.973-13.009H11.636C5.201,360.724,0,365.937,0,372.36s5.201,11.636,11.636,11.636    h34.909c6.423,0,11.636,5.225,11.636,11.636v69.818c0,6.412-5.213,11.636-11.636,11.636H11.636C5.201,477.088,0,482.301,0,488.724    c0,6.423,5.201,11.636,11.636,11.636h34.909c19.247,0,34.909-15.663,34.909-34.909v-65.443l50.758-58.019    c15.476-17.676,37.818-27.811,61.3-27.811h120.669c0,19.247-15.663,34.909-34.909,34.909h-11.636h-58.182    c-6.435,0-11.636,5.213-11.636,11.636s5.201,11.636,11.636,11.636h58.182h11.636h42.927c19.281,0,38.703-4.317,56.169-12.486    l49.571-23.191c16.803-9.344,37.167-8.785,53.26,0.582l-96.966,72.727c-18.292,13.719-39.971,22.295-62.673,24.82l-163.887,18.222    c-4.666,0.524-9.425,0.78-14.138,0.78h-27.171c-6.435,0-11.636,5.213-11.636,11.636c0,6.423,5.201,11.636,11.636,11.636h27.171    c5.574,0,11.194-0.314,16.71-0.931l163.898-18.211c26.833-2.979,52.445-13.114,74.054-29.335l109.149-81.85    c2.7-2.025,4.387-5.12,4.62-8.483C512.198,334.914,510.976,331.61,508.591,329.224z" fill="#00123f" data-original="#000000" style=""/>
	</g>
</g>
<g xmlns="http://www.w3.org/2000/svg">
	<g>
		<path d="M460.474,99.639l-18.292-11.264V23.269c0-6.423-5.201-11.636-11.636-11.636H384c-6.435,0-11.636,5.213-11.636,11.636    v22.144l-42.182-25.961c-16.64-10.228-38.621-10.228-55.284,0L144.617,99.627C134.214,106.039,128,117.151,128,129.37v10.263    c0,6.423,5.201,11.636,11.636,11.636h23.273v104.727c0,6.423,5.201,11.636,11.636,11.636c6.435,0,11.636-5.213,11.636-11.636    V139.633c0-6.423-5.201-11.636-11.636-11.636h-23.191c0.407-3.526,2.385-6.656,5.469-8.541l130.269-80.175    c9.321-5.725,21.597-5.725,30.895,0l130.281,80.175c3.084,1.897,5.062,5.027,5.469,8.541h-23.191    c-6.435,0-11.636,5.213-11.636,11.636v139.636c0,6.423,5.201,11.636,11.636,11.636s11.636-5.213,11.636-11.636v-128h23.273    c6.435,0,11.636-5.213,11.636-11.636V129.37C477.091,117.151,470.877,106.039,460.474,99.639z M418.909,74.05l-23.552-14.487    c0.058-0.477,0.279-0.896,0.279-1.385V34.906h23.273V74.05z" fill="#00123f" data-original="#000000" style=""/>
	</g>
</g>
<g xmlns="http://www.w3.org/2000/svg">
	<g>
		<path d="M290.909,151.269h-69.818c-6.435,0-11.636,5.213-11.636,11.636v93.091c0,6.423,5.201,11.636,11.636,11.636    c6.435,0,11.636-5.213,11.636-11.636v-81.455h46.545v46.545c-6.435,0-11.636,5.213-11.636,11.636s5.201,11.636,11.636,11.636    v11.636c0,6.423,5.201,11.636,11.636,11.636c6.435,0,11.636-5.213,11.636-11.636v-93.091    C302.545,156.482,297.344,151.269,290.909,151.269z" fill="#00123f" data-original="#000000" style=""/>
	</g>
</g>
<g xmlns="http://www.w3.org/2000/svg">
	<g>
		<path d="M384,151.269h-58.182c-6.435,0-11.636,5.213-11.636,11.636v69.818c0,6.423,5.201,11.636,11.636,11.636H384    c6.435,0,11.636-5.213,11.636-11.636v-69.818C395.636,156.482,390.435,151.269,384,151.269z M372.364,221.088h-34.909v-46.545    h34.909V221.088z" fill="#00123f" data-original="#000000" style=""/>
	</g>
</g>
<g xmlns="http://www.w3.org/2000/svg">
</g>
<g xmlns="http://www.w3.org/2000/svg">
</g>
<g xmlns="http://www.w3.org/2000/svg">
</g>
<g xmlns="http://www.w3.org/2000/svg">
</g>
<g xmlns="http://www.w3.org/2000/svg">
</g>
<g xmlns="http://www.w3.org/2000/svg">
</g>
<g xmlns="http://www.w3.org/2000/svg">
</g>
<g xmlns="http://www.w3.org/2000/svg">
</g>
<g xmlns="http://www.w3.org/2000/svg">
</g>
<g xmlns="http://www.w3.org/2000/svg">
</g>
<g xmlns="http://www.w3.org/2000/svg">
</g>
<g xmlns="http://www.w3.org/2000/svg">
</g>
<g xmlns="http://www.w3.org/2000/svg">
</g>
<g xmlns="http://www.w3.org/2000/svg">
</g>
<g xmlns="http://www.w3.org/2000/svg">
</g>
</g></svg>
