<?xml version="1.0"?>
<svg xmlns="http://www.w3.org/2000/svg" xmlns:xlink="http://www.w3.org/1999/xlink" xmlns:svgjs="http://svgjs.com/svgjs" version="1.1" width="512" height="512" x="0" y="0" viewBox="0 0 368.64 368.64" style="enable-background:new 0 0 512 512" xml:space="preserve"><g>
<g xmlns="http://www.w3.org/2000/svg">
	<g>
		<path d="M71.68,109.421c-3.768,0-6.827,3.058-6.827,6.827v53.299c0,3.768,3.058,6.827,6.827,6.827s6.827-3.058,6.827-6.827    v-53.299C78.507,112.48,75.448,109.421,71.68,109.421z" fill="#00123f" data-original="#000000" style=""/>
	</g>
</g>
<g xmlns="http://www.w3.org/2000/svg">
	<g>
		<path d="M71.68,201.53c-3.768,0-6.827,3.058-6.827,6.827v49.169c0,3.768,3.058,6.827,6.827,6.827s6.827-3.058,6.827-6.827v-49.169    C78.507,204.588,75.448,201.53,71.68,201.53z" fill="#00123f" data-original="#000000" style=""/>
	</g>
</g>
<g xmlns="http://www.w3.org/2000/svg">
	<g>
		<path d="M337.92,0H71.68c-3.768,0-6.827,3.058-6.827,6.827v72.667c0,3.768,3.058,6.827,6.827,6.827s6.827-3.058,6.827-6.827    v-65.84h252.587v341.333H78.507v-59.174c0-3.768-3.058-6.827-6.827-6.827s-6.827,3.058-6.827,6.827v66    c0,3.768,3.058,6.827,6.827,6.827h266.24c3.768,0,6.827-3.058,6.827-6.827V6.827C344.747,3.058,341.688,0,337.92,0z" fill="#00123f" data-original="#000000" style=""/>
	</g>
</g>
<g xmlns="http://www.w3.org/2000/svg">
	<g>
		<path d="M269.653,40.96H139.947c-3.768,0-6.827,3.058-6.827,6.827s3.058,6.827,6.827,6.827h129.707    c3.768,0,6.827-3.058,6.827-6.827S273.422,40.96,269.653,40.96z" fill="#00123f" data-original="#000000" style=""/>
	</g>
</g>
<g xmlns="http://www.w3.org/2000/svg">
	<g>
		<path d="M303.787,95.573h-163.84c-3.768,0-6.827,3.058-6.827,6.827s3.058,6.827,6.827,6.827h163.84    c3.768,0,6.827-3.058,6.827-6.827S307.555,95.573,303.787,95.573z" fill="#00123f" data-original="#000000" style=""/>
	</g>
</g>
<g xmlns="http://www.w3.org/2000/svg">
	<g>
		<path d="M303.787,136.533h-163.84c-3.768,0-6.827,3.058-6.827,6.827s3.058,6.827,6.827,6.827h163.84    c3.768,0,6.827-3.058,6.827-6.827C310.613,139.592,307.555,136.533,303.787,136.533z" fill="#00123f" data-original="#000000" style=""/>
	</g>
</g>
<g xmlns="http://www.w3.org/2000/svg">
	<g>
		<path d="M303.787,177.493h-163.84c-3.768,0-6.827,3.058-6.827,6.827s3.058,6.827,6.827,6.827h163.84    c3.768,0,6.827-3.058,6.827-6.827S307.555,177.493,303.787,177.493z" fill="#00123f" data-original="#000000" style=""/>
	</g>
</g>
<g xmlns="http://www.w3.org/2000/svg">
	<g>
		<path d="M303.787,218.453h-163.84c-3.768,0-6.827,3.058-6.827,6.827s3.058,6.827,6.827,6.827h163.84    c3.768,0,6.827-3.058,6.827-6.827S307.555,218.453,303.787,218.453z" fill="#00123f" data-original="#000000" style=""/>
	</g>
</g>
<g xmlns="http://www.w3.org/2000/svg">
	<g>
		<path d="M303.787,259.413h-163.84c-3.768,0-6.827,3.058-6.827,6.827s3.058,6.827,6.827,6.827h163.84    c3.768,0,6.827-3.058,6.827-6.827S307.555,259.413,303.787,259.413z" fill="#00123f" data-original="#000000" style=""/>
	</g>
</g>
<g xmlns="http://www.w3.org/2000/svg">
	<g>
		<path d="M194.56,300.373h-54.613c-3.768,0-6.827,3.058-6.827,6.827s3.058,6.827,6.827,6.827h54.613    c3.768,0,6.827-3.058,6.827-6.827S198.328,300.373,194.56,300.373z" fill="#00123f" data-original="#000000" style=""/>
	</g>
</g>
<g xmlns="http://www.w3.org/2000/svg">
	<g>
		<path d="M95.573,75.093H47.787c-13.172,0-23.893,10.718-23.893,23.893s10.721,23.893,23.893,23.893h47.787    c13.172,0,23.893-10.718,23.893-23.893S108.745,75.093,95.573,75.093z M95.573,109.227H47.787c-5.646,0-10.24-4.594-10.24-10.24    c0-5.646,4.594-10.24,10.24-10.24h47.787c5.646,0,10.24,4.594,10.24,10.24C105.813,104.632,101.219,109.227,95.573,109.227z" fill="#00123f" data-original="#000000" style=""/>
	</g>
</g>
<g xmlns="http://www.w3.org/2000/svg">
	<g>
		<path d="M95.573,163.84H47.787c-13.172,0-23.893,10.718-23.893,23.893s10.721,23.893,23.893,23.893h47.787    c13.172,0,23.893-10.718,23.893-23.893S108.745,163.84,95.573,163.84z M95.573,197.973H47.787c-5.646,0-10.24-4.594-10.24-10.24    c0-5.646,4.594-10.24,10.24-10.24h47.787c5.646,0,10.24,4.594,10.24,10.24C105.813,193.379,101.219,197.973,95.573,197.973z" fill="#00123f" data-original="#000000" style=""/>
	</g>
</g>
<g xmlns="http://www.w3.org/2000/svg">
	<g>
		<path d="M95.573,252.587H47.787c-13.172,0-23.893,10.718-23.893,23.893c0,13.175,10.721,23.893,23.893,23.893h47.787    c13.172,0,23.893-10.718,23.893-23.893C119.467,263.305,108.745,252.587,95.573,252.587z M95.573,286.72H47.787    c-5.646,0-10.24-4.594-10.24-10.24c0-5.646,4.594-10.24,10.24-10.24h47.787c5.646,0,10.24,4.594,10.24,10.24    C105.813,282.126,101.219,286.72,95.573,286.72z" fill="#00123f" data-original="#000000" style=""/>
	</g>
</g>
<g xmlns="http://www.w3.org/2000/svg">
</g>
<g xmlns="http://www.w3.org/2000/svg">
</g>
<g xmlns="http://www.w3.org/2000/svg">
</g>
<g xmlns="http://www.w3.org/2000/svg">
</g>
<g xmlns="http://www.w3.org/2000/svg">
</g>
<g xmlns="http://www.w3.org/2000/svg">
</g>
<g xmlns="http://www.w3.org/2000/svg">
</g>
<g xmlns="http://www.w3.org/2000/svg">
</g>
<g xmlns="http://www.w3.org/2000/svg">
</g>
<g xmlns="http://www.w3.org/2000/svg">
</g>
<g xmlns="http://www.w3.org/2000/svg">
</g>
<g xmlns="http://www.w3.org/2000/svg">
</g>
<g xmlns="http://www.w3.org/2000/svg">
</g>
<g xmlns="http://www.w3.org/2000/svg">
</g>
<g xmlns="http://www.w3.org/2000/svg">
</g>
</g></svg>
