<?xml version="1.0"?>
<svg xmlns="http://www.w3.org/2000/svg" xmlns:xlink="http://www.w3.org/1999/xlink" xmlns:svgjs="http://svgjs.com/svgjs" version="1.1" width="512" height="512" x="0" y="0" viewBox="0 0 498.39899 498" style="enable-background:new 0 0 512 512" xml:space="preserve" class=""><g><path xmlns="http://www.w3.org/2000/svg" d="m94.734375 130.269531c23.3125-.027343 42.207031-18.921875 42.234375-42.234375v-14.5c-.113281-23.246094-18.988281-42.03125-42.234375-42.03125s-42.121094 18.785156-42.234375 42.03125v14.5c.027344 23.3125 18.917969 42.207032 42.234375 42.234375zm-30.234375-56.730469c.023438-16.6875 13.546875-30.210937 30.234375-30.230468 16.6875.019531 30.214844 13.546875 30.234375 30.234375v14.5c-.097656 16.632812-13.605469 30.0625-30.234375 30.0625-16.632813 0-30.140625-13.429688-30.238281-30.0625zm0 0" fill="#3399ff" data-original="#000000" style="" class=""/><path xmlns="http://www.w3.org/2000/svg" d="m26.1875 297.925781h.289062c5.09375-.058593 10.046876-1.648437 14.222657-4.5625l4.957031 167.683594c0 .136719.011719.269531.023438.40625.839843 8.847656 8.285156 15.59375 17.171874 15.566406h66.847657c8.902343.03125 16.351562-6.738281 17.171875-15.597656.011718-.136719.019531-.273437.023437-.410156l4.617188-167.355469c7.988281 5.253906 18.214843 5.703125 26.628906 1.164062 8.417969-4.539062 13.664063-13.328124 13.664063-22.886718v-88.578125c2.246093-23.875-15.191407-45.09375-39.050782-47.511719-1.035156-.105469-12.214844-.179688-33.230468-.222656h-.011719c-2.148438.003906-4.132813 1.152344-5.203125 3.015625l-18.171875 31.683593-17.207031-31.570312c-1.050782-1.925781-3.070313-3.128906-5.265626-3.128906h-30.015624c-24.09375.027344-43.617188 19.550781-43.648438 43.644531 0 1.261719.183594 88.960937.191406 92.679687.003906 14.351563 11.636719 25.980469 25.988282 25.980469zm-13.992188-25.992187c0-.914063-.191406-91.417969-.191406-92.664063.019532-17.472656 14.175782-31.628906 31.648438-31.648437h26.449218l20.632813 37.863281c1.039063 1.90625 3.027344 3.101563 5.203125 3.128906 2.171875.023438 4.1875-1.132812 5.269531-3.015625l21.777344-37.964844c11.402344.027344 26.820313.089844 28.675781.164063 17.335938 1.820313 29.9375 17.320313 28.179688 34.660156-.023438.203125-.03125.40625-.03125.605469v88.867188c-.039063 7.609374-6.144532 13.796874-13.753906 13.933593-7.609376.140625-13.933594-5.824219-14.246094-13.425781l-.011719-.601562c-.054687-3.273438-2.722656-5.898438-6-5.898438h-.050781c-3.292969.027344-5.949219 2.703125-5.949219 6 0 .269531 0 .539062.011719.808594l.101562 6.410156-5 181.289062c-.328125 2.625-2.5625 4.589844-5.207031 4.582032h-66.851563c-2.640624.007812-4.875-1.953125-5.207031-4.574219l-5.359375-181.355469-.121094-7.796875c-.046874-3.28125-2.71875-5.914062-6-5.910156h-.046874c-3.292969.023437-5.953126 2.703125-5.953126 6 0 7.929687-6.199218 14.457031-13.835937 14.542969h-.148437c-7.726563 0-13.988282-6.265625-13.988282-13.996094zm0 0" fill="#3399ff" data-original="#000000" style="" class=""/><path xmlns="http://www.w3.org/2000/svg" d="m388.570312 299.039062-47.675781-34.707031c-2.105469-1.53125-4.957031-1.53125-7.0625 0l-118.558593 86.3125c-1.761719 1.25-2.71875 3.351563-2.5 5.503907.21875 2.148437 1.578124 4.015624 3.558593 4.886718 1.980469.867188 4.273438.605469 6.007813-.691406l25.191406-18.339844v129.015625c0 3.3125 2.6875 6 6 6h167.660156c3.316406 0 6-2.6875 6-6v-129.015625l25.195313 18.339844c2.679687 1.886719 6.375 1.273438 8.304687-1.375 1.925782-2.648438 1.375-6.351562-1.242187-8.324219l-32.257813-23.484375v-51.664062c0-3.316406-2.683594-6-6-6h-26.621094c-3.3125 0-6 2.683594-6 6zm-56.859374 165.980469h-24.476563v-53.769531h24.476563zm83.480468 0h-71.480468v-59.769531c0-3.316406-2.683594-6-6-6h-36.476563c-3.316406 0-6 2.683594-6 6v59.769531h-35.703125v-131.753906l77.832031-56.664063 77.832031 56.664063zm0-183.523437v36.925781l-14.621094-10.644531v-26.28125zm0 0" fill="#3399ff" data-original="#000000" style="" class=""/><path xmlns="http://www.w3.org/2000/svg" d="m364.363281 408.308594h36.480469c3.3125 0 6-2.683594 6-6v-27.359375c0-3.3125-2.6875-6-6-6h-36.480469c-3.3125 0-6 2.6875-6 6v27.359375c0 3.316406 2.6875 6 6 6zm6-27.359375h24.480469v15.359375h-24.480469zm0 0" fill="#3399ff" data-original="#000000" style="" class=""/><path xmlns="http://www.w3.org/2000/svg" d="m331.113281 249.683594c0 3.3125 2.6875 6 6 6s6-2.6875 6-6v-.273438c0-3.3125-2.6875-6-6-6s-6 2.6875-6 6zm0 0" fill="#3399ff" data-original="#000000" style="" class=""/><path xmlns="http://www.w3.org/2000/svg" d="m331.113281 236.027344c0 3.3125 2.6875 6 6 6s6-2.6875 6-6v-29.339844c0-3.3125-2.6875-6-6-6s-6 2.6875-6 6zm0 0" fill="#3399ff" data-original="#000000" style="" class=""/><path xmlns="http://www.w3.org/2000/svg" d="m337.113281 196.445312c3.3125 0 6-2.6875 6-6v-29.019531c0-3.316406-2.6875-6-6-6s-6 2.683594-6 6v29.019531c0 3.3125 2.6875 6 6 6zm0 0" fill="#3399ff" data-original="#000000" style="" class=""/><path xmlns="http://www.w3.org/2000/svg" d="m303.714844 241.4375c0 3.3125 2.683594 6 6 6 3.3125 0 6-2.6875 6-6v-1.628906c0-3.3125-2.6875-6-6-6-3.316406 0-6 2.6875-6 6zm0 0" fill="#3399ff" data-original="#000000" style="" class=""/><path xmlns="http://www.w3.org/2000/svg" d="m309.714844 228.84375c3.3125 0 6-2.683594 6-6v-47.605469c0-3.3125-2.6875-6-6-6-3.316406 0-6 2.6875-6 6v47.605469c0 3.316406 2.683594 6 6 6zm0 0" fill="#3399ff" data-original="#000000" style="" class=""/><path xmlns="http://www.w3.org/2000/svg" d="m356.699219 229.773438c0 3.3125 2.6875 6 6 6 3.316406 0 6-2.6875 6-6v-18.75c0-3.3125-2.683594-6-6-6-3.3125 0-6 2.6875-6 6zm0 0" fill="#3399ff" data-original="#000000" style="" class=""/><path xmlns="http://www.w3.org/2000/svg" d="m362.699219 199.886719c3.316406 0 6-2.6875 6-6v-26.25c0-3.316407-2.683594-6-6-6-3.3125 0-6 2.683593-6 6v26.25c0 3.3125 2.6875 6 6 6zm0 0" fill="#3399ff" data-original="#000000" style="" class=""/><path xmlns="http://www.w3.org/2000/svg" d="m286.300781 112.191406c.992188 2.21875 3.230469 3.613282 5.65625 3.527344l11.351563-.359375.410156 46.882813c.027344 3.292968 2.703125 5.945312 6 5.945312h.050781c3.3125-.027344 5.976563-2.738281 5.949219-6.050781l-.464844-53.019531c-.015625-1.617188-.679687-3.15625-1.84375-4.277344-1.164062-1.117188-2.734375-1.71875-4.347656-1.667969l-3.003906.097656 30.128906-32.105469 32.109375 30.132813-5.789063.183594c-3.238281.101562-5.808593 2.757812-5.808593 6v45.429687c0 3.3125 2.6875 6 6 6s6-2.6875 6-6v-39.621094l14.457031-.457031c2.425781-.078125 4.566406-1.605469 5.421875-3.878906.859375-2.269531.261719-4.832031-1.507813-6.492187l-47.046874-44.15625c-2.417969-2.269532-6.214844-2.148438-8.480469.265624l-44.152344 47.046876c-1.660156 1.769531-2.089844 4.363281-1.089844 6.574218zm0 0" fill="#3399ff" data-original="#000000" style="" class=""/><path xmlns="http://www.w3.org/2000/svg" d="m440.550781 295.28125c0 3.3125 2.6875 6 6 6s6-2.6875 6-6v-9.027344c0-3.316406-2.6875-6-6-6s-6 2.683594-6 6zm0 0" fill="#3399ff" data-original="#000000" style="" class=""/><path xmlns="http://www.w3.org/2000/svg" d="m440.550781 265.996094c0 3.316406 2.6875 6 6 6s6-2.683594 6-6v-73.0625c0-3.316406-2.6875-6-6-6s-6 2.683594-6 6zm0 0" fill="#3399ff" data-original="#000000" style="" class=""/><path xmlns="http://www.w3.org/2000/svg" d="m440.550781 179.550781c0 3.3125 2.6875 6 6 6s6-2.6875 6-6v-9.339843c0-3.316407-2.6875-6-6-6s-6 2.683593-6 6zm0 0" fill="#3399ff" data-original="#000000" style="" class=""/><path xmlns="http://www.w3.org/2000/svg" d="m446.550781 159.96875c3.3125 0 6-2.6875 6-6v-29.023438c0-3.3125-2.6875-6-6-6s-6 2.6875-6 6v29.023438c0 3.3125 2.6875 6 6 6zm0 0" fill="#3399ff" data-original="#000000" style="" class=""/><path xmlns="http://www.w3.org/2000/svg" d="m413.148438 233.332031c0 3.316407 2.6875 6 6 6 3.316406 0 6-2.683593 6-6v-1.015625c0-3.3125-2.683594-6-6-6-3.3125 0-6 2.6875-6 6zm0 0" fill="#3399ff" data-original="#000000" style="" class=""/><path xmlns="http://www.w3.org/2000/svg" d="m419.148438 222.367188c3.316406 0 6-2.6875 6-6v-77.605469c0-3.316407-2.683594-6-6-6-3.3125 0-6 2.683593-6 6v77.605469c0 3.3125 2.6875 6 6 6zm0 0" fill="#3399ff" data-original="#000000" style="" class=""/><path xmlns="http://www.w3.org/2000/svg" d="m472.132812 168.546875c-3.316406 0-6 2.683594-6 6v58.316406c0 3.3125 2.683594 6 6 6 3.3125 0 6-2.6875 6-6v-58.316406c0-3.316406-2.6875-6-6-6zm0 0" fill="#3399ff" data-original="#000000" style="" class=""/><path xmlns="http://www.w3.org/2000/svg" d="m472.132812 248.394531c-3.316406 0-6 2.6875-6 6v50.816407c0 3.3125 2.683594 6 6 6 3.3125 0 6-2.6875 6-6v-50.816407c0-3.3125-2.6875-6-6-6zm0 0" fill="#3399ff" data-original="#000000" style="" class=""/><path xmlns="http://www.w3.org/2000/svg" d="m472.132812 320.910156c-3.316406 0-6 2.6875-6 6v3.175782c0 3.3125 2.683594 6 6 6 3.3125 0 6-2.6875 6-6v-3.175782c0-3.3125-2.6875-6-6-6zm0 0" fill="#3399ff" data-original="#000000" style="" class=""/><path xmlns="http://www.w3.org/2000/svg" d="m472.132812 125.15625c-3.316406 0-6 2.6875-6 6v26.253906c0 3.3125 2.683594 6 6 6 3.3125 0 6-2.6875 6-6v-26.253906c0-3.3125-2.6875-6-6-6zm0 0" fill="#3399ff" data-original="#000000" style="" class=""/><path xmlns="http://www.w3.org/2000/svg" d="m449.460938 1.824219c-2.417969-2.269531-6.214844-2.148438-8.484376.269531l-44.152343 47.042969c-1.65625 1.769531-2.085938 4.363281-1.085938 6.574219.996094 2.210937 3.226563 3.601562 5.652344 3.527343l11.339844-.359375.417969 59.574219c.023437 3.296875 2.703124 5.957031 6 5.957031h.042968c3.316406-.023437 5.984375-2.726562 5.960938-6.042968l-.464844-65.722657c-.011719-1.617187-.675781-3.160156-1.839844-4.28125-1.167968-1.121093-2.734375-1.722656-4.351562-1.671875l-3.007813.09375 30.132813-32.105468 32.109375 30.136718-5.789063.179688c-3.238281.105468-5.8125 2.761718-5.808594 6v65.433594c0 3.316406 2.683594 6 6 6 3.3125 0 6-2.683594 6-6v-59.621094l14.457032-.457032c2.425781-.078124 4.566406-1.605468 5.421875-3.878906.859375-2.269531.261719-4.832031-1.507813-6.492187zm0 0" fill="#3399ff" data-original="#000000" style="" class=""/><path xmlns="http://www.w3.org/2000/svg" d="m231.746094 295.28125c0 3.3125 2.6875 6 6 6 3.316406 0 6-2.6875 6-6v-2.03125c0-3.316406-2.683594-6-6-6-3.3125 0-6 2.683594-6 6zm0 0" fill="#3399ff" data-original="#000000" style="" class=""/><path xmlns="http://www.w3.org/2000/svg" d="m231.746094 270.746094c0 3.3125 2.6875 6 6 6 3.316406 0 6-2.6875 6-6v-27.578125c0-3.3125-2.683594-6-6-6-3.3125 0-6 2.6875-6 6zm0 0" fill="#3399ff" data-original="#000000" style="" class=""/><path xmlns="http://www.w3.org/2000/svg" d="m237.746094 232.925781c3.316406 0 6-2.6875 6-6v-10.785156c0-3.3125-2.683594-6-6-6-3.3125 0-6 2.6875-6 6v10.785156c0 3.3125 2.6875 6 6 6zm0 0" fill="#3399ff" data-original="#000000" style="" class=""/><path xmlns="http://www.w3.org/2000/svg" d="m204.347656 332.636719c0 3.3125 2.6875 6 6 6s6-2.6875 6-6v-3.144531c0-3.3125-2.6875-6-6-6s-6 2.6875-6 6zm0 0" fill="#3399ff" data-original="#000000" style="" class=""/><path xmlns="http://www.w3.org/2000/svg" d="m204.347656 311.964844c0 3.3125 2.6875 6 6 6s6-2.6875 6-6v-35.671875c0-3.316407-2.6875-6-6-6s-6 2.683593-6 6zm0 0" fill="#3399ff" data-original="#000000" style="" class=""/><path xmlns="http://www.w3.org/2000/svg" d="m210.347656 265.324219c3.3125 0 6-2.6875 6-6v-68.582031c0-3.3125-2.6875-6-6-6s-6 2.6875-6 6v68.582031c0 3.3125 2.6875 6 6 6zm0 0" fill="#3399ff" data-original="#000000" style="" class=""/><path xmlns="http://www.w3.org/2000/svg" d="m257.328125 266.253906c0 3.3125 2.6875 6 6 6 3.316406 0 6-2.6875 6-6v-.511718c0-3.3125-2.683594-6-6-6-3.3125 0-6 2.6875-6 6zm0 0" fill="#3399ff" data-original="#000000" style="" class=""/><path xmlns="http://www.w3.org/2000/svg" d="m263.328125 254.605469c3.316406 0 6-2.6875 6-6v-67.289063c0-3.316406-2.683594-6-6-6-3.3125 0-6 2.683594-6 6v67.289063c0 3.3125 2.6875 6 6 6zm0 0" fill="#3399ff" data-original="#000000" style="" class=""/><path xmlns="http://www.w3.org/2000/svg" d="m192.589844 59.242188 11.316406-.359376.441406 112.449219c.011719 3.304688 2.695313 5.976563 6 5.976563h.023438c3.316406-.011719 5.988281-2.710938 5.976562-6.023438l-.460937-118.621094c-.007813-1.617187-.667969-3.167968-1.835938-4.292968-1.164062-1.125-2.738281-1.730469-4.355469-1.679688l-3.007812.097656 30.132812-32.109374 32.109376 30.136718-5.789063.179688c-3.242187.105468-5.8125 2.761718-5.8125 6v111.03125c0 3.3125 2.6875 6 6 6 3.316406 0 6-2.6875 6-6v-105.21875l14.457031-.457032c2.425782-.078124 4.566406-1.609374 5.425782-3.878906.855468-2.269531.261718-4.835937-1.511719-6.496094l-47.042969-44.152343c-2.414062-2.265625-6.210938-2.144531-8.480469.269531l-44.152343 47.042969c-1.660157 1.769531-2.089844 4.367187-1.089844 6.574219 1 2.210937 3.230468 3.601562 5.65625 3.527343zm0 0" fill="#3399ff" data-original="#000000" style="" class=""/></g></svg>
